<svg width="283" height="64" viewBox="0 0 283 64" fill="none" 
    xmlns="http://www.w3.org/2000/svg">
    <path d="M141.04 16c-11.04 0-19 7.2-19 18s8.96 18 20 18c6.67 0 12.55-2.64 16.19-7.09l-7.65-4.42c-2.02 2.21-5.09 3.5-8.54 3.5-4.79 0-8.86-2.5-10.37-6.5h28.02c.22-1.12.35-2.28.35-3.5 0-10.79-7.96-17.99-19-17.99zm-9.46 14.5c1.25-3.99 4.67-6.5 9.45-6.5 4.79 0 8.21 2.51 9.45 6.5h-18.9zM248.72 16c-11.04 0-19 7.2-19 18s8.96 18 20 18c6.67 0 12.55-2.64 16.19-7.09l-7.65-4.42c-2.02 2.21-5.09 3.5-8.54 3.5-4.79 0-8.86-2.5-10.37-6.5h28.02c.22-1.12.35-2.28.35-3.5 0-10.79-7.96-17.99-19-17.99zm-9.45 14.5c1.25-3.99 4.67-6.5 9.45-6.5 4.79 0 8.21 2.51 9.45 6.5h-18.9zM200.24 34c0 6 3.92 10 10 10 4.12 0 7.21-1.87 8.8-4.92l7.68 4.43c-3.18 5.3-9.14 8.49-16.48 8.49-11.05 0-19-7.2-19-18s7.96-18 19-18c7.34 0 13.29 3.19 16.48 8.49l-7.68 4.43c-1.59-3.05-4.68-4.92-8.8-4.92-6.07 0-10 4-10 10zm82.48-29v46h-9V5h9zM36.95 0L73.9 64H0L36.95 0zm92.38 5l-27.71 48L73.91 5H84.3l17.32 30 17.32-30h10.39zm58.91 12v9.69c-1-.29-2.06-.49-3.2-.49-5.81 0-10 4-10 10V51h-9V17h9v9.2c0-5.08 5.91-9.2 13.2-9.2z" fill="#000"/>
</svg>
<svg height='100px' width='100px'  fill="#000000" xmlns="http://www.w3.org/2000/svg" data-name="Layer 26" viewBox="0 0 100 100" x="0px" y="0px"><title>12. shape</title><path d="M45.53,52.74a.52.52,0,0,1-.45-.28.5.5,0,0,1,.22-.67L48.88,50,10.5,30.81V69.19L14,67.44a.5.5,0,0,1,.67.23.51.51,0,0,1-.22.67L11.12,70,49.5,89.19V50.81l-3.75,1.87A.46.46,0,0,1,45.53,52.74ZM23.39,63.86,18.92,66.1a.44.44,0,0,1-.22.05.5.5,0,0,1-.45-.27.5.5,0,0,1,.22-.67L22.94,63a.5.5,0,0,1,.67.22A.49.49,0,0,1,23.39,63.86Zm8.94-4.47-4.47,2.24a.59.59,0,0,1-.22,0,.5.5,0,0,1-.22-1l4.47-2.23a.49.49,0,0,1,.67.22A.5.5,0,0,1,32.33,59.39Zm9-4.47-4.47,2.24a.59.59,0,0,1-.23.05.48.48,0,0,1-.44-.28.49.49,0,0,1,.22-.67L40.83,54a.5.5,0,0,1,.67.23A.49.49,0,0,1,41.28,54.92Z"></path><path d="M54.7,51.79a.5.5,0,0,1,.22.67.52.52,0,0,1-.45.28.46.46,0,0,1-.22-.06L50.5,50.81V89.19L88.88,70l-3.33-1.66a.51.51,0,0,1-.22-.67.5.5,0,0,1,.67-.23l3.5,1.75V30.81L51.12,50Zm21.69,11.4a.5.5,0,0,1,.67-.22l4.47,2.24a.49.49,0,0,1,.22.67.5.5,0,0,1-.45.27.44.44,0,0,1-.22-.05l-4.47-2.24A.49.49,0,0,1,76.39,63.19Zm-9-4.47a.5.5,0,0,1,.67-.22l4.47,2.23a.5.5,0,0,1-.22,1,.59.59,0,0,1-.22,0l-4.47-2.24A.5.5,0,0,1,67.44,58.72ZM58.5,54.25a.5.5,0,0,1,.67-.23l4.47,2.24a.49.49,0,0,1,.22.67.48.48,0,0,1-.44.28.59.59,0,0,1-.23-.05l-4.47-2.24A.49.49,0,0,1,58.5,54.25Z"></path><path d="M50.5,10.81V15a.5.5,0,0,1-1,0V10.81L11.12,30,50,49.44,88.88,30ZM50.5,45a.5.5,0,0,1-1,0V40a.5.5,0,0,1,1,0Zm0-10a.5.5,0,0,1-1,0V30a.5.5,0,0,1,1,0Zm0-10a.5.5,0,0,1-1,0V20a.5.5,0,0,1,1,0Z"></path></svg>
<svg height='100px' width='100px'  fill="#000000" xmlns="http://www.w3.org/2000/svg" xmlns:xlink="http://www.w3.org/1999/xlink" xml:space="preserve" version="1.1" style="shape-rendering:geometricPrecision;text-rendering:geometricPrecision;image-rendering:optimizeQuality;" viewBox="0 0 215 273" x="0px" y="0px" fill-rule="evenodd" clip-rule="evenodd"><defs><style type="text/css">
   
  .fil0 {fill:#000000}
 
</style></defs><g><polygon class="fil0" points="215,136 0,0 116,136 0,273 "></polygon></g></svg>